<svg width="1920" height="1080" viewBox="0 0 1920 1080" fill="none" xmlns="http://www.w3.org/2000/svg">
<g clip-path="url(#clip0_3_577)">
<rect width="1920" height="1080" fill="#11174A"/>
<g opacity="0.07">
<line y1="3.73529" x2="1919" y2="3.73529" stroke="white"/>
<line y1="7.97058" x2="1919" y2="7.97058" stroke="white"/>
<line y1="12.2059" x2="1919" y2="12.2059" stroke="white"/>
<line y1="16.4412" x2="1919" y2="16.4412" stroke="white"/>
<line y1="20.6765" x2="1919" y2="20.6765" stroke="white"/>
<line y1="24.9117" x2="1919" y2="24.9117" stroke="white"/>
<line y1="29.1471" x2="1919" y2="29.1471" stroke="white"/>
<line y1="33.3824" x2="1919" y2="33.3824" stroke="white"/>
<line y1="37.6177" x2="1919" y2="37.6177" stroke="white"/>
<line y1="41.853" x2="1919" y2="41.853" stroke="white"/>
<line y1="46.0883" x2="1919" y2="46.0883" stroke="white"/>
<line y1="50.3235" x2="1919" y2="50.3235" stroke="white"/>
<line y1="54.5588" x2="1919" y2="54.5588" stroke="white"/>
<line y1="58.7942" x2="1919" y2="58.7942" stroke="white"/>
<line y1="63.0294" x2="1919" y2="63.0294" stroke="white"/>
<line y1="67.2647" x2="1919" y2="67.2647" stroke="white"/>
<line y1="71.5" x2="1919" y2="71.5" stroke="white"/>
<line y1="75.7353" x2="1919" y2="75.7353" stroke="white"/>
<line y1="79.9706" x2="1919" y2="79.9706" stroke="white"/>
<line y1="84.2059" x2="1919" y2="84.2059" stroke="white"/>
<line y1="88.4412" x2="1919" y2="88.4412" stroke="white"/>
<line y1="92.6765" x2="1919" y2="92.6765" stroke="white"/>
<line y1="96.9118" x2="1919" y2="96.9118" stroke="white"/>
<line y1="101.147" x2="1919" y2="101.147" stroke="white"/>
<line y1="105.382" x2="1919" y2="105.382" stroke="white"/>
<line y1="109.618" x2="1919" y2="109.618" stroke="white"/>
<line y1="113.853" x2="1919" y2="113.853" stroke="white"/>
<line y1="118.088" x2="1919" y2="118.088" stroke="white"/>
<line y1="122.324" x2="1919" y2="122.324" stroke="white"/>
<line y1="126.559" x2="1919" y2="126.559" stroke="white"/>
<line y1="130.794" x2="1919" y2="130.794" stroke="white"/>
<line y1="135.029" x2="1919" y2="135.029" stroke="white"/>
<line y1="139.265" x2="1919" y2="139.265" stroke="white"/>
<line y1="143.5" x2="1919" y2="143.5" stroke="white"/>
<line y1="147.735" x2="1919" y2="147.735" stroke="white"/>
<line y1="151.971" x2="1919" y2="151.971" stroke="white"/>
<line y1="156.206" x2="1919" y2="156.206" stroke="white"/>
<line y1="160.441" x2="1919" y2="160.441" stroke="white"/>
<line y1="164.676" x2="1919" y2="164.676" stroke="white"/>
<line y1="168.912" x2="1919" y2="168.912" stroke="white"/>
<line y1="173.147" x2="1919" y2="173.147" stroke="white"/>
<line y1="177.382" x2="1919" y2="177.382" stroke="white"/>
<line y1="181.618" x2="1919" y2="181.618" stroke="white"/>
<line y1="185.853" x2="1919" y2="185.853" stroke="white"/>
<line y1="190.088" x2="1919" y2="190.088" stroke="white"/>
<line y1="194.324" x2="1919" y2="194.324" stroke="white"/>
<line y1="198.559" x2="1919" y2="198.559" stroke="white"/>
<line y1="202.794" x2="1919" y2="202.794" stroke="white"/>
<line y1="207.029" x2="1919" y2="207.029" stroke="white"/>
<line y1="211.265" x2="1919" y2="211.265" stroke="white"/>
<line y1="215.5" x2="1919" y2="215.5" stroke="white"/>
<line y1="219.735" x2="1919" y2="219.735" stroke="white"/>
<line y1="223.971" x2="1919" y2="223.971" stroke="white"/>
<line y1="228.206" x2="1919" y2="228.206" stroke="white"/>
<line y1="232.441" x2="1919" y2="232.441" stroke="white"/>
<line y1="236.676" x2="1919" y2="236.676" stroke="white"/>
<line y1="240.912" x2="1919" y2="240.912" stroke="white"/>
<line y1="245.147" x2="1919" y2="245.147" stroke="white"/>
<line y1="249.382" x2="1919" y2="249.382" stroke="white"/>
<line y1="253.618" x2="1919" y2="253.618" stroke="white"/>
<line y1="257.853" x2="1919" y2="257.853" stroke="white"/>
<line y1="262.088" x2="1919" y2="262.088" stroke="white"/>
<line y1="266.324" x2="1919" y2="266.324" stroke="white"/>
<line y1="270.559" x2="1919" y2="270.559" stroke="white"/>
<line y1="274.794" x2="1919" y2="274.794" stroke="white"/>
<line y1="279.029" x2="1919" y2="279.029" stroke="white"/>
<line y1="283.265" x2="1919" y2="283.265" stroke="white"/>
<line y1="287.5" x2="1919" y2="287.5" stroke="white"/>
<line y1="291.735" x2="1919" y2="291.735" stroke="white"/>
<line y1="295.971" x2="1919" y2="295.971" stroke="white"/>
<line y1="300.206" x2="1919" y2="300.206" stroke="white"/>
<line y1="304.441" x2="1919" y2="304.441" stroke="white"/>
<line y1="308.676" x2="1919" y2="308.676" stroke="white"/>
<line y1="312.912" x2="1919" y2="312.912" stroke="white"/>
<line y1="317.147" x2="1919" y2="317.147" stroke="white"/>
<line y1="321.382" x2="1919" y2="321.382" stroke="white"/>
<line y1="325.618" x2="1919" y2="325.618" stroke="white"/>
<line y1="329.853" x2="1919" y2="329.853" stroke="white"/>
<line y1="334.088" x2="1919" y2="334.088" stroke="white"/>
<line y1="338.324" x2="1919" y2="338.324" stroke="white"/>
<line y1="342.559" x2="1919" y2="342.559" stroke="white"/>
<line y1="346.794" x2="1919" y2="346.794" stroke="white"/>
<line y1="351.029" x2="1919" y2="351.029" stroke="white"/>
<line y1="355.265" x2="1919" y2="355.265" stroke="white"/>
<line y1="359.5" x2="1919" y2="359.5" stroke="white"/>
<line y1="363.735" x2="1919" y2="363.735" stroke="white"/>
<line y1="367.971" x2="1919" y2="367.971" stroke="white"/>
<line y1="372.206" x2="1919" y2="372.206" stroke="white"/>
<line y1="376.441" x2="1919" y2="376.441" stroke="white"/>
<line y1="380.676" x2="1919" y2="380.676" stroke="white"/>
<line y1="384.912" x2="1919" y2="384.912" stroke="white"/>
<line y1="389.147" x2="1919" y2="389.147" stroke="white"/>
<line y1="393.382" x2="1919" y2="393.382" stroke="white"/>
<line y1="397.618" x2="1919" y2="397.618" stroke="white"/>
<line y1="401.853" x2="1919" y2="401.853" stroke="white"/>
<line y1="406.088" x2="1919" y2="406.088" stroke="white"/>
<line y1="410.324" x2="1919" y2="410.324" stroke="white"/>
<line y1="414.559" x2="1919" y2="414.559" stroke="white"/>
<line y1="418.794" x2="1919" y2="418.794" stroke="white"/>
<line y1="423.029" x2="1919" y2="423.029" stroke="white"/>
<line y1="427.265" x2="1919" y2="427.265" stroke="white"/>
<line y1="431.5" x2="1919" y2="431.5" stroke="white"/>
<line y1="435.735" x2="1919" y2="435.735" stroke="white"/>
<line y1="439.971" x2="1919" y2="439.971" stroke="white"/>
<line y1="444.206" x2="1919" y2="444.206" stroke="white"/>
<line y1="448.441" x2="1919" y2="448.441" stroke="white"/>
<line y1="452.676" x2="1919" y2="452.676" stroke="white"/>
<line y1="456.912" x2="1919" y2="456.912" stroke="white"/>
<line y1="461.147" x2="1919" y2="461.147" stroke="white"/>
<line y1="465.382" x2="1919" y2="465.382" stroke="white"/>
<line y1="469.618" x2="1919" y2="469.618" stroke="white"/>
<line y1="473.853" x2="1919" y2="473.853" stroke="white"/>
<line y1="478.088" x2="1919" y2="478.088" stroke="white"/>
<line y1="482.324" x2="1919" y2="482.324" stroke="white"/>
<line y1="486.559" x2="1919" y2="486.559" stroke="white"/>
<line y1="490.794" x2="1919" y2="490.794" stroke="white"/>
<line y1="495.029" x2="1919" y2="495.029" stroke="white"/>
<line y1="499.265" x2="1919" y2="499.265" stroke="white"/>
<line y1="503.5" x2="1919" y2="503.5" stroke="white"/>
<line y1="507.735" x2="1919" y2="507.735" stroke="white"/>
<line y1="511.971" x2="1919" y2="511.971" stroke="white"/>
<line y1="516.206" x2="1919" y2="516.206" stroke="white"/>
<line y1="520.441" x2="1919" y2="520.441" stroke="white"/>
<line y1="524.676" x2="1919" y2="524.676" stroke="white"/>
<line y1="528.912" x2="1919" y2="528.912" stroke="white"/>
<line y1="533.147" x2="1919" y2="533.147" stroke="white"/>
<line y1="537.382" x2="1919" y2="537.382" stroke="white"/>
<line y1="541.618" x2="1919" y2="541.618" stroke="white"/>
<line y1="545.853" x2="1919" y2="545.853" stroke="white"/>
<line y1="550.088" x2="1919" y2="550.088" stroke="white"/>
<line y1="554.324" x2="1919" y2="554.324" stroke="white"/>
<line y1="558.559" x2="1919" y2="558.559" stroke="white"/>
<line y1="562.794" x2="1919" y2="562.794" stroke="white"/>
<line y1="567.029" x2="1919" y2="567.029" stroke="white"/>
<line y1="571.265" x2="1919" y2="571.265" stroke="white"/>
<line y1="575.5" x2="1919" y2="575.5" stroke="white"/>
<line y1="579.735" x2="1919" y2="579.735" stroke="white"/>
<line y1="583.971" x2="1919" y2="583.971" stroke="white"/>
<line y1="588.206" x2="1919" y2="588.206" stroke="white"/>
<line y1="592.441" x2="1919" y2="592.441" stroke="white"/>
<line y1="596.676" x2="1919" y2="596.676" stroke="white"/>
<line y1="600.912" x2="1919" y2="600.912" stroke="white"/>
<line y1="605.147" x2="1919" y2="605.147" stroke="white"/>
<line y1="609.382" x2="1919" y2="609.382" stroke="white"/>
<line y1="613.618" x2="1919" y2="613.618" stroke="white"/>
<line y1="617.853" x2="1919" y2="617.853" stroke="white"/>
<line y1="622.088" x2="1919" y2="622.088" stroke="white"/>
<line y1="626.324" x2="1919" y2="626.324" stroke="white"/>
<line y1="630.559" x2="1919" y2="630.559" stroke="white"/>
<line y1="634.794" x2="1919" y2="634.794" stroke="white"/>
<line y1="639.029" x2="1919" y2="639.029" stroke="white"/>
<line y1="643.265" x2="1919" y2="643.265" stroke="white"/>
<line y1="647.5" x2="1919" y2="647.5" stroke="white"/>
<line y1="651.735" x2="1919" y2="651.735" stroke="white"/>
<line y1="655.971" x2="1919" y2="655.971" stroke="white"/>
<line y1="660.206" x2="1919" y2="660.206" stroke="white"/>
<line y1="664.441" x2="1919" y2="664.441" stroke="white"/>
<line y1="668.676" x2="1919" y2="668.676" stroke="white"/>
<line y1="672.912" x2="1919" y2="672.912" stroke="white"/>
<line y1="677.147" x2="1919" y2="677.147" stroke="white"/>
<line y1="681.382" x2="1919" y2="681.382" stroke="white"/>
<line y1="685.618" x2="1919" y2="685.618" stroke="white"/>
<line y1="689.853" x2="1919" y2="689.853" stroke="white"/>
<line y1="694.088" x2="1919" y2="694.088" stroke="white"/>
<line y1="698.324" x2="1919" y2="698.324" stroke="white"/>
<line y1="702.559" x2="1919" y2="702.559" stroke="white"/>
<line y1="706.794" x2="1919" y2="706.794" stroke="white"/>
<line y1="711.029" x2="1919" y2="711.029" stroke="white"/>
<line y1="715.265" x2="1919" y2="715.265" stroke="white"/>
<line y1="719.5" x2="1919" y2="719.5" stroke="white"/>
<line y1="723.735" x2="1919" y2="723.735" stroke="white"/>
<line y1="727.971" x2="1919" y2="727.971" stroke="white"/>
<line y1="732.206" x2="1919" y2="732.206" stroke="white"/>
<line y1="736.441" x2="1919" y2="736.441" stroke="white"/>
<line y1="740.676" x2="1919" y2="740.676" stroke="white"/>
<line y1="744.912" x2="1919" y2="744.912" stroke="white"/>
<line y1="749.147" x2="1919" y2="749.147" stroke="white"/>
<line y1="753.382" x2="1919" y2="753.382" stroke="white"/>
<line y1="757.618" x2="1919" y2="757.618" stroke="white"/>
<line y1="761.853" x2="1919" y2="761.853" stroke="white"/>
<line y1="766.088" x2="1919" y2="766.088" stroke="white"/>
<line y1="770.324" x2="1919" y2="770.324" stroke="white"/>
<line y1="774.559" x2="1919" y2="774.559" stroke="white"/>
<line y1="778.794" x2="1919" y2="778.794" stroke="white"/>
<line y1="783.029" x2="1919" y2="783.029" stroke="white"/>
<line y1="787.265" x2="1919" y2="787.265" stroke="white"/>
<line y1="791.5" x2="1919" y2="791.5" stroke="white"/>
<line y1="795.735" x2="1919" y2="795.735" stroke="white"/>
<line y1="799.971" x2="1919" y2="799.971" stroke="white"/>
<line y1="804.206" x2="1919" y2="804.206" stroke="white"/>
<line y1="808.441" x2="1919" y2="808.441" stroke="white"/>
<line y1="812.676" x2="1919" y2="812.677" stroke="white"/>
<line y1="816.912" x2="1919" y2="816.912" stroke="white"/>
<line y1="821.147" x2="1919" y2="821.147" stroke="white"/>
<line y1="825.382" x2="1919" y2="825.382" stroke="white"/>
<line y1="829.618" x2="1919" y2="829.618" stroke="white"/>
<line y1="833.853" x2="1919" y2="833.853" stroke="white"/>
<line y1="838.088" x2="1919" y2="838.088" stroke="white"/>
<line y1="842.324" x2="1919" y2="842.323" stroke="white"/>
<line y1="846.559" x2="1919" y2="846.559" stroke="white"/>
<line y1="850.794" x2="1919" y2="850.794" stroke="white"/>
<line y1="855.029" x2="1919" y2="855.029" stroke="white"/>
<line y1="859.265" x2="1919" y2="859.265" stroke="white"/>
<line y1="863.5" x2="1919" y2="863.5" stroke="white"/>
<line y1="867.735" x2="1919" y2="867.735" stroke="white"/>
<line y1="871.971" x2="1919" y2="871.971" stroke="white"/>
<line y1="876.206" x2="1919" y2="876.206" stroke="white"/>
<line y1="880.441" x2="1919" y2="880.441" stroke="white"/>
<line y1="884.676" x2="1919" y2="884.676" stroke="white"/>
<line y1="888.912" x2="1919" y2="888.912" stroke="white"/>
<line y1="893.147" x2="1919" y2="893.147" stroke="white"/>
<line y1="897.382" x2="1919" y2="897.382" stroke="white"/>
<line y1="901.618" x2="1919" y2="901.618" stroke="white"/>
<line y1="905.853" x2="1919" y2="905.853" stroke="white"/>
<line y1="910.088" x2="1919" y2="910.088" stroke="white"/>
<line y1="914.324" x2="1919" y2="914.323" stroke="white"/>
<line y1="918.559" x2="1919" y2="918.559" stroke="white"/>
<line y1="922.794" x2="1919" y2="922.794" stroke="white"/>
<line y1="927.029" x2="1919" y2="927.029" stroke="white"/>
<line y1="931.265" x2="1919" y2="931.265" stroke="white"/>
<line y1="935.5" x2="1919" y2="935.5" stroke="white"/>
<line y1="939.735" x2="1919" y2="939.735" stroke="white"/>
<line y1="943.971" x2="1919" y2="943.971" stroke="white"/>
<line y1="948.206" x2="1919" y2="948.206" stroke="white"/>
<line y1="952.441" x2="1919" y2="952.441" stroke="white"/>
<line y1="956.676" x2="1919" y2="956.676" stroke="white"/>
<line y1="960.912" x2="1919" y2="960.912" stroke="white"/>
<line y1="965.147" x2="1919" y2="965.147" stroke="white"/>
<line y1="969.382" x2="1919" y2="969.382" stroke="white"/>
<line y1="973.618" x2="1919" y2="973.618" stroke="white"/>
<line y1="977.853" x2="1919" y2="977.853" stroke="white"/>
<line y1="982.088" x2="1919" y2="982.088" stroke="white"/>
<line y1="986.324" x2="1919" y2="986.323" stroke="white"/>
<line y1="990.559" x2="1919" y2="990.559" stroke="white"/>
<line y1="994.794" x2="1919" y2="994.794" stroke="white"/>
<line y1="999.029" x2="1919" y2="999.029" stroke="white"/>
<line y1="1003.26" x2="1919" y2="1003.26" stroke="white"/>
<line y1="1007.5" x2="1919" y2="1007.5" stroke="white"/>
<line y1="1011.74" x2="1919" y2="1011.74" stroke="white"/>
<line y1="1015.97" x2="1919" y2="1015.97" stroke="white"/>
<line y1="1020.21" x2="1919" y2="1020.21" stroke="white"/>
<line y1="1024.44" x2="1919" y2="1024.44" stroke="white"/>
<line y1="1028.68" x2="1919" y2="1028.68" stroke="white"/>
<line y1="1032.91" x2="1919" y2="1032.91" stroke="white"/>
<line y1="1037.15" x2="1919" y2="1037.15" stroke="white"/>
<line y1="1041.38" x2="1919" y2="1041.38" stroke="white"/>
<line y1="1045.62" x2="1919" y2="1045.62" stroke="white"/>
<line y1="1049.85" x2="1919" y2="1049.85" stroke="white"/>
<line y1="1054.09" x2="1919" y2="1054.09" stroke="white"/>
<line y1="1058.32" x2="1919" y2="1058.32" stroke="white"/>
<line y1="1062.56" x2="1919" y2="1062.56" stroke="white"/>
<line y1="1066.79" x2="1919" y2="1066.79" stroke="white"/>
<line y1="1071.03" x2="1919" y2="1071.03" stroke="white"/>
<line y1="1075.26" x2="1919" y2="1075.26" stroke="white"/>
<line y1="1079.5" x2="1919" y2="1079.5" stroke="white"/>
</g>
</g>
<defs>
<clipPath id="clip0_3_577">
<rect width="1920" height="1080" fill="white"/>
</clipPath>
</defs>
</svg>
